<svg width="20" height="20" viewBox="0 0 20 20" fill="none" xmlns="http://www.w3.org/2000/svg">
<circle cx="10" cy="10" r="10" fill="#FF9C40"/>
<path d="M12.5312 10.2812C12.5312 10.82 12.3172 11.3366 11.9363 11.7176C11.5554 12.0985 11.0387 12.3125 10.5 12.3125C9.96128 12.3125 9.44462 12.0985 9.06369 11.7176C8.68276 11.3366 8.46875 10.82 8.46875 10.2812C8.46875 9.74253 8.68276 9.22587 9.06369 8.84494C9.44462 8.46401 9.96128 8.25 10.5 8.25C11.0387 8.25 11.5554 8.46401 11.9363 8.84494C12.3172 9.22587 12.5312 9.74253 12.5312 10.2812V10.2812Z" fill="white"/>
<path d="M5.625 6.625C5.19402 6.625 4.7807 6.7962 4.47595 7.10095C4.1712 7.4057 4 7.81902 4 8.25V13.125C4 13.556 4.1712 13.9693 4.47595 14.274C4.7807 14.5788 5.19402 14.75 5.625 14.75H15.375C15.806 14.75 16.2193 14.5788 16.524 14.274C16.8288 13.9693 17 13.556 17 13.125V8.25C17 7.81902 16.8288 7.4057 16.524 7.10095C16.2193 6.7962 15.806 6.625 15.375 6.625H14.4228C13.9918 6.62491 13.5786 6.45364 13.2739 6.14888L12.6011 5.47612C12.2964 5.17136 11.8832 5.00009 11.4522 5H9.54775C9.11681 5.00009 8.70355 5.17136 8.39888 5.47612L7.72612 6.14888C7.42145 6.45364 7.00819 6.62491 6.57725 6.625H5.625ZM6.03125 8.25C5.92351 8.25 5.82017 8.2072 5.74399 8.13101C5.6678 8.05483 5.625 7.95149 5.625 7.84375C5.625 7.73601 5.6678 7.63267 5.74399 7.55649C5.82017 7.4803 5.92351 7.4375 6.03125 7.4375C6.13899 7.4375 6.24233 7.4803 6.31851 7.55649C6.3947 7.63267 6.4375 7.73601 6.4375 7.84375C6.4375 7.95149 6.3947 8.05483 6.31851 8.13101C6.24233 8.2072 6.13899 8.25 6.03125 8.25ZM13.3438 10.2812C13.3438 11.0355 13.0441 11.7588 12.5108 12.2921C11.9775 12.8254 11.2542 13.125 10.5 13.125C9.74579 13.125 9.02247 12.8254 8.48917 12.2921C7.95586 11.7588 7.65625 11.0355 7.65625 10.2812C7.65625 9.52704 7.95586 8.80372 8.48917 8.27042C9.02247 7.73711 9.74579 7.4375 10.5 7.4375C11.2542 7.4375 11.9775 7.73711 12.5108 8.27042C13.0441 8.80372 13.3437 9.52704 13.3438 10.2812V10.2812Z" fill="white"/>
</svg>
