<svg width="30" height="27" viewBox="0 0 30 27" fill="none" xmlns="http://www.w3.org/2000/svg">
<path d="M28.5418 26.2992H1.46117C1.20468 26.2992 0.952707 26.2316 0.73058 26.1034C0.508453 25.9751 0.323999 25.7907 0.195756 25.5685C0.0675121 25.3464 -1.629e-06 25.0944 0 24.8379C1.62906e-06 24.5815 0.0675185 24.3295 0.195765 24.1074L13.7353 0.728015C13.8638 0.506585 14.0481 0.322785 14.27 0.195018C14.4918 0.0672506 14.7433 0 14.9993 0C15.2553 0 15.5068 0.0672506 15.7286 0.195018C15.9504 0.322785 16.1348 0.506585 16.2632 0.728015L29.8042 24.1074C29.9324 24.3294 29.9999 24.5812 30 24.8376C30.0001 25.094 29.9327 25.3458 29.8046 25.5679C29.6765 25.79 29.4923 25.9745 29.2704 26.1028C29.0484 26.2312 28.7967 26.2989 28.5403 26.2992H28.5418ZM13.541 18.9931V21.9155H16.4605V18.9931H13.541ZM13.541 8.76466V16.0707H16.4634V8.76466H13.541Z" fill="#B5B5B5"/>
</svg>
