<svg width="27" height="27" viewBox="0 0 27 27" fill="none" xmlns="http://www.w3.org/2000/svg">
<path d="M0 13.125C0 15.7209 0.769768 18.2585 2.21196 20.4169C3.65416 22.5753 5.704 24.2575 8.10228 25.2509C10.5006 26.2443 13.1396 26.5042 15.6856 25.9978C18.2316 25.4914 20.5702 24.2413 22.4058 22.4058C24.2413 20.5702 25.4914 18.2316 25.9978 15.6856C26.5042 13.1396 26.2443 10.5006 25.2509 8.10228C24.2575 5.704 22.5753 3.65416 20.4169 2.21196C18.2585 0.769768 15.7209 0 13.125 0C9.64403 0 6.30564 1.38281 3.84422 3.84422C1.38281 6.30564 0 9.64403 0 13.125ZM21.7031 20.3906L5.85938 4.54688C8.01622 2.75156 10.7662 1.82717 13.5695 1.95512C16.3729 2.08307 19.0272 3.25414 21.0115 5.23847C22.9959 7.2228 24.1669 9.87712 24.2949 12.6805C24.4228 15.4838 23.4984 18.2338 21.7031 20.3906ZM5.85 21.7125C3.57968 19.7845 2.16657 17.0349 1.92052 14.0666C1.67448 11.0983 2.6156 8.15358 4.5375 5.87813L20.3719 21.7125C18.3415 23.4281 15.7691 24.3694 13.1109 24.3694C10.4527 24.3694 7.88041 23.4281 5.85 21.7125Z" fill="#B5B5B5"/>
</svg>
