<svg width="26" height="28" viewBox="0 0 26 28" fill="none" xmlns="http://www.w3.org/2000/svg">
<path d="M21.4244 12.9826H4.57555C4.02647 12.9826 3.58136 13.4648 3.58136 14.0596V14.173C3.58136 14.7678 4.02647 15.25 4.57555 15.25H21.4244C21.9735 15.25 22.4186 14.7678 22.4186 14.173V14.0596C22.4186 13.4648 21.9735 12.9826 21.4244 12.9826Z" fill="white"/>
<path d="M21.4244 18.6512H4.57555C4.02647 18.6512 3.58136 19.1334 3.58136 19.7282V19.8416C3.58136 20.4364 4.02647 20.9186 4.57555 20.9186H21.4244C21.9735 20.9186 22.4186 20.4364 22.4186 19.8416V19.7282C22.4186 19.1334 21.9735 18.6512 21.4244 18.6512Z" fill="white"/>
<path d="M21.4244 7.314H4.57555C4.02647 7.314 3.58136 7.7962 3.58136 8.39103V8.5044C3.58136 9.09923 4.02647 9.58144 4.57555 9.58144H21.4244C21.9735 9.58144 22.4186 9.09923 22.4186 8.5044V8.39103C22.4186 7.7962 21.9735 7.314 21.4244 7.314Z" fill="white"/>
</svg>
