<svg width="39" height="48" viewBox="0 0 39 48" fill="none" xmlns="http://www.w3.org/2000/svg">
<g filter="url(#filter0_i_103_406)">
<ellipse cx="19.5" cy="24" rx="19.5" ry="24" fill="#E8E8E8"/>
<path d="M5.44936 21.2031C5.25965 21.2048 5.07285 21.1563 4.90796 21.0625C4.78701 20.9945 4.68083 20.9031 4.59564 20.7936C4.51045 20.6841 4.44796 20.5587 4.41181 20.4247C4.37567 20.2907 4.36661 20.1509 4.38516 20.0134C4.40371 19.8759 4.44949 19.7435 4.51983 19.6239C5.87546 17.3612 9.99999 12.0801 19 12.0801C22.9002 12.0801 26.3209 13.1045 29.1622 15.1239C31.5008 16.7812 32.8115 18.6571 33.4358 19.5606C33.515 19.6745 33.5706 19.8031 33.5994 19.9388C33.6281 20.0745 33.6294 20.2146 33.6032 20.3508C33.577 20.487 33.5238 20.6166 33.4468 20.7319C33.3697 20.8473 33.2704 20.9461 33.1546 21.0224C32.9179 21.1789 32.6297 21.237 32.3509 21.1845C32.0721 21.132 31.8247 20.973 31.6612 20.7412C30.5312 19.1162 27.0859 14.1719 19 14.1719C11.1074 14.1719 7.53905 18.7218 6.37678 20.673C6.2834 20.8359 6.1482 20.9709 5.98516 21.0642C5.82212 21.1574 5.63715 21.2053 5.44936 21.2031Z" fill="#676767"/>
<path d="M23.5345 41.875C23.4447 41.8761 23.3552 41.8659 23.268 41.8448C16.7395 40.2276 14.3017 33.7012 14.2026 33.4298L14.1871 33.37C14.1337 33.1816 12.8238 28.7062 14.8347 26.0849C15.7565 24.8896 17.1585 24.2765 19.0099 24.2765C20.7311 24.2765 21.9728 24.8116 22.8264 25.919C23.5295 26.8232 23.8108 27.9384 24.0829 29.0127C24.6545 31.2501 25.0673 32.425 27.4431 32.5459C28.4866 32.5987 29.1721 31.9884 29.561 31.4687C30.6121 30.0519 30.7949 27.7422 30.0025 25.7031C28.9844 23.0713 25.371 18.1094 19 18.1094C16.2803 18.1094 13.7814 18.9834 11.7775 20.6259C10.1188 21.9864 8.80469 23.9073 8.17188 25.8817C6.99836 29.5577 8.53751 35.3359 8.55227 35.3887C8.58821 35.5231 8.59685 35.6635 8.5777 35.8013C8.55855 35.9392 8.51198 36.0719 8.44075 36.1915C8.36952 36.311 8.27506 36.4152 8.16295 36.4977C8.05084 36.5802 7.92334 36.6394 7.78797 36.6719C7.5145 36.7446 7.22342 36.7073 6.97712 36.568C6.73082 36.4287 6.54889 36.1984 6.47032 35.9266C6.4 35.6629 4.7561 29.5 6.11172 25.2517C7.58829 20.6484 12.1452 16.0077 19.0021 16.0077C22.1711 16.0077 25.165 17.0849 27.6639 19.1191C29.5989 20.7011 31.1795 22.8259 32.0064 24.9501C33.0576 27.662 32.7756 30.7059 31.2899 32.6943C30.2999 34.0204 28.8902 34.7137 27.3285 34.6384C23.2602 34.4345 22.529 31.5946 21.996 29.5232C21.4476 27.3984 21.0967 26.3739 19.0021 26.3739C17.8518 26.3739 17.0439 26.6903 16.5412 27.3456C15.8556 28.2421 15.8022 29.6434 15.8781 30.6602C15.928 31.3685 16.0481 32.0702 16.2367 32.7548C16.4041 33.1766 18.5831 38.5204 23.8017 39.8134C23.9365 39.8454 24.0637 39.9038 24.1758 39.9854C24.2879 40.0669 24.3827 40.1699 24.4547 40.2883C24.5266 40.4068 24.5743 40.5384 24.595 40.6755C24.6157 40.8126 24.6089 40.9524 24.5751 41.0868C24.5114 41.3137 24.3752 41.5136 24.1873 41.6559C23.9995 41.7982 23.7702 41.8752 23.5345 41.875V41.875Z" fill="#676767"/>
<path d="M15.1546 41.3926C15.0083 41.3929 14.8634 41.3638 14.7286 41.3069C14.5938 41.25 14.4718 41.1665 14.3699 41.0615C11.7571 38.3193 10.2792 35.253 9.72298 31.4188V31.3984C9.41079 28.8601 9.86782 25.2665 12.1073 22.7957C13.7603 20.9725 16.0841 20.0458 19.0021 20.0458C22.453 20.0458 25.165 21.6503 26.856 24.6787C28.083 26.8787 28.3262 29.0711 28.3326 29.1611C28.3454 29.2998 28.3308 29.4398 28.2895 29.5729C28.2482 29.706 28.1811 29.8296 28.0919 29.9368C28.0028 30.0439 27.8934 30.1323 27.77 30.1971C27.6466 30.2619 27.5116 30.3017 27.3728 30.3142C27.0928 30.3446 26.812 30.2636 26.5911 30.0888C26.3702 29.914 26.227 29.6593 26.1923 29.3798C26.0071 28.0643 25.5814 26.7942 24.9365 25.6328C23.6259 23.3202 21.6318 22.1446 18.9944 22.1446C16.7163 22.1446 14.9338 22.8302 13.7076 24.1837C11.9399 26.1348 11.5982 29.1407 11.8408 31.1291C12.3281 34.5196 13.6309 37.2168 15.9316 39.6271C16.0276 39.727 16.1025 39.8452 16.152 39.9746C16.2014 40.104 16.2243 40.2421 16.2193 40.3806C16.2144 40.519 16.1816 40.6551 16.123 40.7806C16.0643 40.9062 15.9811 41.0187 15.8781 41.1114C15.6799 41.2911 15.4222 41.3913 15.1546 41.3926V41.3926Z" fill="#676767"/>
<path d="M27.1914 38.372C24.9062 38.372 22.9635 37.7392 21.4089 36.4813C18.2856 33.9648 17.9355 29.8663 17.92 29.6934C17.898 29.4094 17.9897 29.1284 18.1749 28.9121C18.3601 28.6958 18.6236 28.5619 18.9075 28.5399C19.1914 28.5179 19.4725 28.6096 19.6888 28.7948C19.9051 28.98 20.039 29.2435 20.061 29.5274C20.0687 29.5879 20.3809 32.9404 22.7884 34.8712C24.213 36.0088 26.117 36.4602 28.4633 36.1966C28.7438 36.1625 29.0263 36.2409 29.2491 36.4146C29.4719 36.5882 29.6168 36.843 29.6523 37.1233C29.6677 37.2617 29.6553 37.4018 29.6159 37.5354C29.5766 37.669 29.511 37.7935 29.423 37.9015C29.3351 38.0095 29.2265 38.0989 29.1036 38.1644C28.9807 38.23 28.846 38.2705 28.7073 38.2834C28.2041 38.3421 27.698 38.3717 27.1914 38.372V38.372ZM28.997 10.4305C28.1055 9.85047 24.9442 8.125 19 8.125C12.7605 8.125 9.59148 10.0312 8.89046 10.5156C8.84416 10.544 8.80082 10.577 8.76108 10.6141C8.75689 10.6181 8.75143 10.6206 8.74562 10.6211C8.63367 10.7188 8.54385 10.8393 8.48214 10.9745C8.42042 11.1097 8.38824 11.2565 8.38773 11.4051C8.38965 11.5444 8.41904 11.6819 8.47422 11.8099C8.5294 11.9378 8.60928 12.0536 8.70928 12.1506C8.80928 12.2475 8.92744 12.3239 9.05698 12.3751C9.18653 12.4264 9.32491 12.4515 9.46421 12.4492C9.68748 12.4491 9.90535 12.3806 10.0886 12.253C10.1188 12.2305 12.8462 10.2266 19.0021 10.2266C25.158 10.2266 27.9001 12.2235 27.9297 12.2383C28.1169 12.3771 28.3442 12.4511 28.5772 12.4492C28.7167 12.4514 28.8551 12.4259 28.9847 12.3744C29.1143 12.3229 29.2324 12.2463 29.3323 12.1491C29.4321 12.0518 29.5118 11.9357 29.5668 11.8076C29.6217 11.6794 29.6508 11.5417 29.6523 11.4023C29.6524 11.1934 29.59 10.9893 29.4733 10.8162C29.3565 10.6431 29.1907 10.5088 28.997 10.4305V10.4305Z" fill="#676767"/>
</g>
<defs>
<filter id="filter0_i_103_406" x="-2" y="-2" width="41" height="50" filterUnits="userSpaceOnUse" color-interpolation-filters="sRGB">
<feFlood flood-opacity="0" result="BackgroundImageFix"/>
<feBlend mode="normal" in="SourceGraphic" in2="BackgroundImageFix" result="shape"/>
<feColorMatrix in="SourceAlpha" type="matrix" values="0 0 0 0 0 0 0 0 0 0 0 0 0 0 0 0 0 0 127 0" result="hardAlpha"/>
<feOffset dx="-2" dy="-2"/>
<feGaussianBlur stdDeviation="1"/>
<feComposite in2="hardAlpha" operator="arithmetic" k2="-1" k3="1"/>
<feColorMatrix type="matrix" values="0 0 0 0 0 0 0 0 0 0 0 0 0 0 0 0 0 0 0.25 0"/>
<feBlend mode="normal" in2="shape" result="effect1_innerShadow_103_406"/>
</filter>
</defs>
</svg>
