<svg width="16" height="16" viewBox="0 0 16 16" fill="none" xmlns="http://www.w3.org/2000/svg">
<path d="M3 1.71429C3 1.25963 3.15804 0.823594 3.43934 0.502103C3.72064 0.180612 4.10218 0 4.5 0H11.5C11.8978 0 12.2794 0.180612 12.5607 0.502103C12.842 0.823594 13 1.25963 13 1.71429V2.28571H13.5C14.163 2.28571 14.7989 2.58673 15.2678 3.12255C15.7366 3.65837 16 4.3851 16 5.14286V10.8571C16 11.3118 15.842 11.7478 15.5607 12.0693C15.2794 12.3908 14.8978 12.5714 14.5 12.5714H13V14.2857C13 14.7404 12.842 15.1764 12.5607 15.4979C12.2794 15.8194 11.8978 16 11.5 16H4.5C4.10218 16 3.72064 15.8194 3.43934 15.4979C3.15804 15.1764 3 14.7404 3 14.2857V12.5714H1.5C1.10218 12.5714 0.720644 12.3908 0.43934 12.0693C0.158035 11.7478 0 11.3118 0 10.8571V5.14286C0 4.3851 0.263392 3.65837 0.732233 3.12255C1.20107 2.58673 1.83696 2.28571 2.5 2.28571H3V1.71429ZM12 1.71429C12 1.56273 11.9473 1.41739 11.8536 1.31022C11.7598 1.20306 11.6326 1.14286 11.5 1.14286H4.5C4.36739 1.14286 4.24021 1.20306 4.14645 1.31022C4.05268 1.41739 4 1.56273 4 1.71429V2.28571H12V1.71429ZM4 9.71429V14.2857C4 14.4373 4.05268 14.5826 4.14645 14.6898C4.24021 14.7969 4.36739 14.8571 4.5 14.8571H11.5C11.6326 14.8571 11.7598 14.7969 11.8536 14.6898C11.9473 14.5826 12 14.4373 12 14.2857V9.71429C12 9.56273 11.9473 9.41739 11.8536 9.31022C11.7598 9.20306 11.6326 9.14286 11.5 9.14286H4.5C4.36739 9.14286 4.24021 9.20306 4.14645 9.31022C4.05268 9.41739 4 9.56273 4 9.71429Z" fill="#676767"/>
</svg>
