<svg width="30" height="30" viewBox="0 0 30 30" fill="none" xmlns="http://www.w3.org/2000/svg">
<path d="M15.0008 0C6.71527 0 8.13919e-08 6.71528 8.13919e-08 14.9992C-0.000205136 16.9692 0.387662 18.9199 1.14145 20.74C1.89524 22.5601 3.00018 24.2138 4.39317 25.6068C5.78616 26.9998 7.43992 28.1048 9.25999 28.8586C11.0801 29.6123 13.0308 30.0002 15.0008 30C23.2832 30 30 23.2847 30 14.9992C30 6.71528 23.2832 0 15.0008 0ZM16.4007 5.41534C17.8631 5.41534 18.2928 6.26374 18.2928 7.234C18.2928 8.44487 17.3241 9.56513 15.6695 9.56513C14.2852 9.56513 13.6259 8.86985 13.6665 7.71835C13.6665 6.74809 14.4774 5.41534 16.4007 5.41534ZM12.654 23.9831C11.6541 23.9831 10.9244 23.3753 11.6228 20.7114L12.7681 15.9851C12.9665 15.2289 12.9993 14.9258 12.7681 14.9258C12.4697 14.9258 11.1713 15.4476 10.4057 15.9632L9.9073 15.1461C12.3369 13.1165 15.1305 11.9259 16.3257 11.9259C17.3257 11.9259 17.4913 13.1071 16.9929 14.9258L15.6804 19.8943C15.4476 20.7724 15.5476 21.0755 15.7804 21.0755C16.0804 21.0755 17.0616 20.713 18.0272 19.9521L18.5928 20.7114C16.2288 23.0738 13.6524 23.9831 12.654 23.9831Z" fill="#B5B5B5"/>
</svg>
