<?xml version="1.0" encoding="utf-8"?>
<!-- Generator: Adobe Illustrator 25.2.0, SVG Export Plug-In . SVG Version: 6.00 Build 0)  -->
<svg version="1.1" id="Capa_1" xmlns="http://www.w3.org/2000/svg" xmlns:xlink="http://www.w3.org/1999/xlink" x="0px" y="0px"
	 viewBox="0 0 792 612" style="enable-background:new 0 0 792 612;" xml:space="preserve">
<style type="text/css">
	.st0{fill:#1E62AC;}
	.st1{fill:#F39327;}
	.st2{fill:url(#SVGID_1_);}
</style>
<g>
	<path class="st0" d="M510.8,71.2h113c72.8,0,119.7,37.4,119.7,101.2v0.8c0,67.9-52.2,103.7-123.8,103.7h-39.5v82.3h-69.4V71.2z
		 M626.9,220.8c35,0,56.3-18.3,56.3-46.2v-1c0-30.4-21.3-46.7-56.8-46.7h-46.2v93.8H626.9z"/>
	<path class="st0" d="M432.6,310.2l58.7,47.5l2-286.5h-53.5L290,268.3c-17.2,24.8-46.2,40.8-78.9,40c-49.3-1.2-89.5-41.5-90.7-90.8
		c-1.2-52.4,40.9-95.4,93.1-95.4c30.6,0,57.8,14.8,74.8,37.6l44.1-34.2c-25.5-35.4-63.3-60.1-122.2-60.1
		c-87.2,0-151.8,65.8-151.8,149.7v0.8c0,86,66.2,148.9,148.5,148.9c63.8,0,100.4-27.6,127.5-65l103.9-136.2L432.6,310.2z"/>
	<path class="st1" d="M422.6,301.9l0,0.3l-17-13.8h-56l53.6,53.6c10.9,10.9,25.8,17,41.3,16.8l46.7-0.6l0-0.8L422.6,301.9z"/>
	<linearGradient id="SVGID_1_" gradientUnits="userSpaceOnUse" x1="461.8409" y1="336.3668" x2="464.2703" y2="265.9149">
		<stop  offset="0" style="stop-color:#172944"/>
		<stop  offset="0.1496" style="stop-color:#172B49;stop-opacity:0.8504"/>
		<stop  offset="0.3603" style="stop-color:#193356;stop-opacity:0.6397"/>
		<stop  offset="0.6072" style="stop-color:#193F6F;stop-opacity:0.3928"/>
		<stop  offset="0.8796" style="stop-color:#145294;stop-opacity:0.1204"/>
		<stop  offset="1" style="stop-color:#095DA9;stop-opacity:0"/>
	</linearGradient>
	<polygon class="st2" points="435.1,247.2 432.6,310.2 491.3,357.7 492,247.2 	"/>
	<g>
		<g>
			<path class="st0" d="M58,448.8v-0.1c0-13.9,10.4-25.3,25.2-25.3c9,0,14.4,3.1,19.1,7.6l-5.5,6.4c-3.9-3.6-8.1-6.1-13.7-6.1
				c-9.3,0-16.1,7.7-16.1,17.2v0.1c0,9.6,6.8,17.3,16.1,17.3c6,0,9.8-2.4,14-6.3l5.5,5.6c-5.1,5.3-10.7,8.7-19.8,8.7
				C68.6,473.9,58,462.8,58,448.8z"/>
			<path class="st0" d="M107.9,454.8v-0.1c0-10.5,8.4-19.3,19.7-19.3c11.3,0,19.6,8.6,19.6,19.1v0.1c0,10.5-8.4,19.2-19.8,19.2
				C116.2,473.9,107.9,465.3,107.9,454.8z M138.8,454.8v-0.1c0-6.5-4.7-11.9-11.3-11.9c-6.8,0-11.1,5.3-11.1,11.7v0.1
				c0,6.4,4.7,11.8,11.2,11.8C134.4,466.5,138.8,461.2,138.8,454.8z"/>
			<path class="st0" d="M155.8,436.2h8.4v5.7c2.4-3.4,5.8-6.4,11.5-6.4c8.3,0,13.1,5.6,13.1,14.1v23.5h-8.4v-20.9c0-5.7-2.9-9-7.9-9
				c-4.9,0-8.3,3.4-8.3,9.1v20.8h-8.4V436.2z"/>
			<path class="st0" d="M200.8,462.9v-19.4h-4.7v-7.3h4.7v-10.1h8.4v10.1h9.9v7.3h-9.9v18.1c0,3.3,1.7,4.6,4.5,4.6
				c1.9,0,3.6-0.4,5.2-1.3v6.9c-2.1,1.2-4.4,1.9-7.6,1.9C205.2,473.7,200.8,471,200.8,462.9z"/>
			<path class="st0" d="M227.8,436.2h8.4v8.3c2.3-5.5,6.6-9.3,13.1-9v8.9h-0.5c-7.4,0-12.6,4.8-12.6,14.6v14h-8.4V436.2z"/>
			<path class="st0" d="M253.3,454.8v-0.1c0-10.5,8.4-19.3,19.7-19.3c11.3,0,19.6,8.6,19.6,19.1v0.1c0,10.5-8.4,19.2-19.8,19.2
				C261.6,473.9,253.3,465.3,253.3,454.8z M284.1,454.8v-0.1c0-6.5-4.7-11.9-11.3-11.9c-6.8,0-11.1,5.3-11.1,11.7v0.1
				c0,6.4,4.7,11.8,11.2,11.8C279.8,466.5,284.1,461.2,284.1,454.8z"/>
			<path class="st0" d="M301.7,422.1h8.4v50.9h-8.4V422.1z"/>
			<path class="st0" d="M360.4,423.9h8l21.5,49.2h-9.1l-5-11.8h-23.1l-5,11.8h-8.8L360.4,423.9z M372.6,453.7l-8.4-19.5l-8.4,19.5
				H372.6z"/>
			<path class="st0" d="M396.1,459.7v-23.4h8.4v20.9c0,5.7,2.9,8.9,7.9,8.9c4.9,0,8.3-3.4,8.3-9.1v-20.8h8.5v36.8h-8.5v-5.7
				c-2.4,3.5-5.8,6.5-11.5,6.5C400.9,473.8,396.1,468.2,396.1,459.7z"/>
			<path class="st0" d="M441.5,462.9v-19.4h-4.7v-7.3h4.7v-10.1h8.4v10.1h9.9v7.3H450v18.1c0,3.3,1.7,4.6,4.5,4.6
				c1.9,0,3.6-0.4,5.2-1.3v6.9c-2.1,1.2-4.4,1.9-7.6,1.9C445.9,473.7,441.5,471,441.5,462.9z"/>
			<path class="st0" d="M465.4,454.8v-0.1c0-10.5,8.4-19.3,19.7-19.3c11.3,0,19.6,8.6,19.6,19.1v0.1c0,10.5-8.4,19.2-19.8,19.2
				C473.7,473.9,465.4,465.3,465.4,454.8z M496.2,454.8v-0.1c0-6.5-4.7-11.9-11.3-11.9c-6.8,0-11.1,5.3-11.1,11.7v0.1
				c0,6.4,4.7,11.8,11.2,11.8C491.9,466.5,496.2,461.2,496.2,454.8z"/>
			<path class="st0" d="M513.3,436.2h8.4v5.6c2.4-3.3,5.6-6.4,11.2-6.4c5.3,0,9.1,2.6,11,6.5c2.9-3.9,6.8-6.5,12.4-6.5
				c8,0,12.9,5.1,12.9,14.1v23.5h-8.4v-20.9c0-5.9-2.7-9-7.5-9c-4.6,0-7.9,3.2-7.9,9.1v20.8h-8.4v-21c0-5.7-2.8-8.9-7.5-8.9
				s-7.9,3.5-7.9,9.1v20.8h-8.4V436.2z"/>
			<path class="st0" d="M577.1,462.5v-0.1c0-8,6.2-11.9,15.2-11.9c4.1,0,7,0.6,9.9,1.5v-0.9c0-5.2-3.2-8-9.1-8
				c-4.1,0-7.2,0.9-10.5,2.3l-2.2-6.6c4-1.8,8-3,13.9-3c5.5,0,9.6,1.5,12.2,4.1c2.7,2.7,4,6.6,4,11.4v21.8h-8.2v-4.6
				c-2.5,3-6.4,5.4-12,5.4C583.3,473.8,577.1,469.8,577.1,462.5z M602.4,459.8v-2.5c-2.2-0.8-5-1.5-8.4-1.5c-5.4,0-8.7,2.3-8.7,6.1
				v0.1c0,3.6,3.1,5.6,7.2,5.6C598.1,467.7,602.4,464.5,602.4,459.8z M598.7,420.1l7.7,3.4l-8.6,8h-6.4L598.7,420.1z"/>
			<path class="st0" d="M621.9,462.9v-19.4h-4.7v-7.3h4.7v-10.1h8.4v10.1h9.9v7.3h-9.9v18.1c0,3.3,1.7,4.6,4.5,4.6
				c1.9,0,3.6-0.4,5.2-1.3v6.9c-2.1,1.2-4.4,1.9-7.6,1.9C626.3,473.7,621.9,471,621.9,462.9z"/>
			<path class="st0" d="M649,422.5h9.1v8H649V422.5z M649.4,436.2h8.4v36.8h-8.4V436.2z"/>
			<path class="st0" d="M666.8,454.8v-0.1c0-10.5,8.1-19.3,19.2-19.3c6.9,0,11.2,2.6,14.7,6.4l-5.3,5.7c-2.6-2.7-5.3-4.6-9.5-4.6
				c-6.1,0-10.7,5.3-10.7,11.7v0.1c0,6.6,4.5,11.8,11,11.8c4,0,6.9-1.8,9.6-4.5l5.1,5c-3.6,4-7.9,6.9-15.1,6.9
				C674.9,473.9,666.8,465.3,666.8,454.8z"/>
			<path class="st0" d="M705.6,454.8v-0.1c0-10.5,8.4-19.3,19.7-19.3c11.3,0,19.6,8.6,19.6,19.1v0.1c0,10.5-8.4,19.2-19.8,19.2
				C713.9,473.9,705.6,465.3,705.6,454.8z M736.5,454.8v-0.1c0-6.5-4.7-11.9-11.3-11.9c-6.8,0-11.1,5.3-11.1,11.7v0.1
				c0,6.4,4.7,11.8,11.2,11.8C732.1,466.5,736.5,461.2,736.5,454.8z"/>
			<path class="st0" d="M147.5,538.1V538c0-12.3,7.7-19.8,16.6-19.8c5.7,0,9.1,2.6,11.6,5.4v-17.8h13.3v50.9h-13.3v-5
				c-2.6,3.1-5.9,5.9-11.5,5.9C155.2,557.6,147.5,550.2,147.5,538.1z M175.9,538v-0.1c0-5-3.4-8.5-7.7-8.5c-4.3,0-7.7,3.5-7.7,8.5
				v0.1c0,5,3.5,8.6,7.7,8.6C172.4,546.6,175.9,543,175.9,538z"/>
			<path class="st0" d="M194.5,538.1V538c0-11,7.9-19.8,19.1-19.8c13.1,0,19.1,9.6,19.1,20.7c0,0.8,0,1.8-0.1,2.7h-25.3
				c1,4.1,4,6.2,8.2,6.2c3.1,0,5.7-1.2,8.4-3.8l7.3,6.1c-3.6,4.6-8.9,7.7-16.4,7.7C202.9,557.7,194.5,549.8,194.5,538.1z
				 M220.2,534.8c-0.5-4.2-2.9-6.8-6.6-6.8c-3.5,0-5.9,2.7-6.6,6.8H220.2z"/>
			<path class="st0" d="M258.4,508h20.9c12.4,0,20.3,6.4,20.3,17.2v0.1c0,11.5-8.9,17.6-21,17.6h-6.7v14h-13.5V508z M278.3,532.2
				c4.8,0,7.7-2.5,7.7-6.4v-0.1c0-4.2-2.9-6.4-7.8-6.4h-6.4v12.9H278.3z"/>
			<path class="st0" d="M304.6,519.1h13.3v7.6c2.2-5.2,5.7-8.5,11.9-8.2v14h-1.1c-6.9,0-10.8,4-10.8,12.7v11.7h-13.3V519.1z"/>
			<path class="st0" d="M332.2,538.1V538c0-10.7,8.8-19.8,20.9-19.8c12.1,0,20.8,8.9,20.8,19.6v0.1c0,10.7-8.8,19.7-20.9,19.7
				C340.9,557.7,332.2,548.9,332.2,538.1z M361,538.1V538c0-4.6-3.3-8.5-8-8.5c-4.8,0-7.9,3.8-7.9,8.4v0.1c0,4.6,3.3,8.5,8,8.5
				C358,546.5,361,542.6,361,538.1z"/>
			<path class="st0" d="M378.1,538.1V538c0-12.3,7.7-19.8,16.6-19.8c5.7,0,9.1,2.6,11.6,5.4v-17.8h13.3v50.9h-13.3v-5
				c-2.6,3.1-5.9,5.9-11.5,5.9C385.9,557.6,378.1,550.2,378.1,538.1z M406.5,538v-0.1c0-5-3.4-8.5-7.7-8.5c-4.3,0-7.7,3.5-7.7,8.5
				v0.1c0,5,3.5,8.6,7.7,8.6C403.1,546.6,406.5,543,406.5,538z"/>
			<path class="st0" d="M426.4,543.8v-24.7h13.3v20.4c0,4.1,2.2,6.4,5.4,6.4c3.1,0,5.5-2.2,5.5-6.4v-20.4h13.3v37.8h-13.3v-5.2
				c-2.4,3.1-5.9,6-11.3,6C431.2,557.6,426.4,552.3,426.4,543.8z"/>
			<path class="st0" d="M469.4,538.1V538c0-10.7,8.3-19.7,20.2-19.7c7.7,0,12.9,3.3,16.1,8.4l-9,6.7c-1.8-2.5-3.8-4-7-4
				c-4.3,0-7.4,3.8-7.4,8.4v0.1c0,4.9,3.1,8.6,7.5,8.6c3.1,0,5.2-1.5,7.3-3.9l8.9,6.4c-3.5,5.2-8.5,8.7-16.8,8.7
				C477.8,557.7,469.4,548.8,469.4,538.1z"/>
			<path class="st0" d="M508.1,538.1V538c0-10.7,8.3-19.7,20.2-19.7c7.7,0,12.9,3.3,16.1,8.4l-9,6.7c-1.8-2.5-3.8-4-7-4
				c-4.3,0-7.4,3.8-7.4,8.4v0.1c0,4.9,3.1,8.6,7.5,8.6c3.1,0,5.2-1.5,7.3-3.9l8.9,6.4c-3.5,5.2-8.5,8.7-16.8,8.7
				C516.5,557.7,508.1,548.8,508.1,538.1z"/>
			<path class="st0" d="M549.3,505.9h13.8v9.8h-13.8V505.9z M549.6,519.1h13.3v37.8h-13.3V519.1z"/>
			<path class="st0" d="M568.7,538.1V538c0-10.7,8.8-19.8,20.9-19.8c12.1,0,20.8,8.9,20.8,19.6v0.1c0,10.7-8.8,19.7-20.9,19.7
				C577.5,557.7,568.7,548.9,568.7,538.1z M597.6,538.1V538c0-4.6-3.4-8.5-8-8.5c-4.8,0-7.9,3.8-7.9,8.4v0.1c0,4.6,3.3,8.5,8,8.5
				C594.5,546.5,597.6,542.6,597.6,538.1z M591.8,502.8l12.4,4l-10.3,8.9h-9.4L591.8,502.8z"/>
			<path class="st0" d="M616,519.1h13.3v5.3c2.4-3.1,5.9-6.1,11.3-6.1c8,0,12.8,5.3,12.8,13.9v24.7h-13.3v-20.4
				c0-4.1-2.2-6.4-5.3-6.4c-3.2,0-5.6,2.2-5.6,6.4v20.4H616V519.1z"/>
		</g>
	</g>
</g>
</svg>
