<svg width="22" height="24" viewBox="0 0 22 24" fill="none" xmlns="http://www.w3.org/2000/svg">
<path d="M21.1656 14.6344L19 12.4688V9.6C18.9975 7.61747 18.26 5.70628 16.9301 4.23599C15.6002 2.76569 13.7723 1.84075 11.8 1.64V0H10.2V1.64C8.22763 1.84075 6.39978 2.76569 5.06987 4.23599C3.73996 5.70628 3.00246 7.61747 2.99998 9.6V12.4688L0.834376 14.6344C0.684336 14.7844 0.600021 14.9878 0.599976 15.2V17.6C0.599976 17.8122 0.684261 18.0157 0.83429 18.1657C0.984319 18.3157 1.1878 18.4 1.39998 18.4H6.99998V19.2C6.99998 20.2609 7.4214 21.2783 8.17155 22.0284C8.92169 22.7786 9.93911 23.2 11 23.2C12.0608 23.2 13.0783 22.7786 13.8284 22.0284C14.5785 21.2783 15 20.2609 15 19.2V18.4H20.6C20.8121 18.4 21.0156 18.3157 21.1657 18.1657C21.3157 18.0157 21.4 17.8122 21.4 17.6V15.2C21.3999 14.9878 21.3156 14.7844 21.1656 14.6344ZM13.4 19.2C13.4 19.8365 13.1471 20.447 12.697 20.8971C12.2469 21.3471 11.6365 21.6 11 21.6C10.3635 21.6 9.75301 21.3471 9.30292 20.8971C8.85283 20.447 8.59998 19.8365 8.59998 19.2V18.4H13.4V19.2Z" fill="white"/>
</svg>
