<svg width="18" height="15" viewBox="0 0 18 15" fill="none" xmlns="http://www.w3.org/2000/svg">
<path d="M17.9204 10.7444L17.9184 10.7424L17.9164 10.7405C17.0304 8.94587 15.6583 8.02258 13.8321 8.02258C12.0059 8.02258 10.6337 8.9478 9.74573 10.7405V10.7424C9.63725 10.9637 9.63725 11.2214 9.74573 11.4426C10.6337 13.2353 12.0059 14.1586 13.8321 14.1586C15.6583 14.1586 17.0304 13.2334 17.9184 11.4407C18.0269 11.2195 18.0269 10.9637 17.9204 10.7444ZM13.8321 12.9276C12.5845 12.9276 11.6744 12.3505 10.9973 11.0906C11.6724 9.8307 12.5845 9.25364 13.8321 9.25364C15.0797 9.25364 15.9897 9.8307 16.6668 11.0906C15.9918 12.3505 15.0797 12.9276 13.8321 12.9276Z" fill="#676767"/>
<path d="M12.7171 11.1002C12.7171 11.3859 12.8356 11.6599 13.0466 11.8619C13.2576 12.0639 13.5437 12.1774 13.8421 12.1774C14.1405 12.1774 14.4267 12.0639 14.6376 11.8619C14.8486 11.6599 14.9672 11.3859 14.9672 11.1002C14.9672 10.8145 14.8486 10.5405 14.6376 10.3385C14.4267 10.1365 14.1405 10.023 13.8421 10.023C13.5437 10.023 13.2576 10.1365 13.0466 10.3385C12.8356 10.5405 12.7171 10.8145 12.7171 11.1002ZM1.44649 2.00194H15.59V6.86846H17.0364V1.23253C17.0364 0.892068 16.7492 0.617004 16.3936 0.617004H0.642885C0.287289 0.617004 0 0.892068 0 1.23253V11.2349C0 11.5753 0.287289 11.8504 0.642885 11.8504H7.71462V10.4654H1.44649V2.00194Z" fill="#676767"/>
<path d="M13.2776 4.0428L12.5383 3.33494C12.476 3.27531 12.3735 3.27531 12.3113 3.33494L8.61868 6.87423L6.88892 5.21615C6.82664 5.15652 6.72418 5.15652 6.6619 5.21615L3.7629 7.9918C3.70062 8.05143 3.70062 8.14953 3.7629 8.20916L4.50221 8.91701C4.56449 8.97664 4.66695 8.97664 4.72923 8.91701L6.77441 6.95886L8.50417 8.61694C8.56645 8.67657 8.66891 8.67657 8.73119 8.61694L13.2776 4.26016C13.3419 4.20053 13.3419 4.10243 13.2776 4.0428Z" fill="#676767"/>
</svg>
