<svg width="21" height="21" viewBox="0 0 21 21" fill="none" xmlns="http://www.w3.org/2000/svg">
<path fill-rule="evenodd" clip-rule="evenodd" d="M10.6959 0.543518C5.05988 0.543518 0.490723 5.02079 0.490723 10.5435C0.490723 16.0662 5.05988 20.5435 10.6959 20.5435C16.332 20.5435 20.9012 16.0662 20.9012 10.5435C20.9012 5.02079 16.332 0.543518 10.6959 0.543518ZM11.6237 14.1799C11.6237 14.421 11.5259 14.6522 11.352 14.8227C11.178 14.9932 10.942 15.089 10.6959 15.089C10.4499 15.089 10.2139 14.9932 10.0399 14.8227C9.86594 14.6522 9.7682 14.421 9.7682 14.1799V11.4526H6.98496C6.7389 11.4526 6.50293 11.3568 6.32894 11.1863C6.15495 11.0159 6.05721 10.7846 6.05721 10.5435C6.05721 10.3024 6.15495 10.0712 6.32894 9.90069C6.50293 9.73021 6.7389 9.63443 6.98496 9.63443H9.7682V6.90715C9.7682 6.66605 9.86594 6.43482 10.0399 6.26433C10.2139 6.09384 10.4499 5.99806 10.6959 5.99806C10.942 5.99806 11.178 6.09384 11.352 6.26433C11.5259 6.43482 11.6237 6.66605 11.6237 6.90715V9.63443H14.4069C14.653 9.63443 14.889 9.73021 15.063 9.90069C15.2369 10.0712 15.3347 10.3024 15.3347 10.5435C15.3347 10.7846 15.2369 11.0159 15.063 11.1863C14.889 11.3568 14.653 11.4526 14.4069 11.4526H11.6237V14.1799Z" fill="#FF9C40"/>
</svg>
