<svg width="37" height="37" viewBox="0 0 37 37" fill="none" xmlns="http://www.w3.org/2000/svg">
<g filter="url(#filter0_d_163_568)">
<path d="M6.00298 26.2981C6.00391 26.3649 6.01801 26.4309 6.04446 26.4923C6.07091 26.5537 6.10919 26.6093 6.15713 26.6559C6.20507 26.7025 6.26172 26.7392 6.32384 26.7639C6.38596 26.7887 6.45235 26.8009 6.5192 26.7999H30.2791C30.346 26.801 30.4125 26.7888 30.4747 26.7641C30.5369 26.7395 30.5936 26.7028 30.6416 26.6562C30.6896 26.6096 30.728 26.5539 30.7544 26.4925C30.7809 26.431 30.7951 26.365 30.796 26.2981V25.6989C30.8077 25.5182 30.8319 24.6175 30.238 23.621C29.8634 22.9925 29.3198 22.4501 28.6221 22.0077C27.7783 21.4725 26.7047 21.0855 25.406 20.8525C24.7467 20.7597 24.0928 20.6325 23.4468 20.4714C21.7291 20.0328 21.579 19.6445 21.5777 19.6406C21.5678 19.6022 21.5534 19.5652 21.5347 19.5303C21.5203 19.4585 21.4857 19.1857 21.5523 18.4554C21.7207 16.6 22.7159 15.5035 23.5154 14.6225C23.7673 14.3451 24.0055 14.0821 24.1889 13.825C24.9805 12.7155 25.0536 11.4526 25.0569 11.3743C25.0598 11.2356 25.0407 11.0972 25.0001 10.9645C24.9218 10.723 24.7762 10.5729 24.6692 10.462C24.6439 10.4366 24.6193 10.4104 24.5955 10.3836C24.5876 10.3745 24.5667 10.3497 24.5857 10.225C24.6497 9.82348 24.6939 9.41902 24.7181 9.01311C24.7547 8.35917 24.7828 7.38153 24.6137 6.42934C24.5889 6.24747 24.5514 6.06756 24.5015 5.89092C24.3233 5.23568 24.0375 4.67572 23.64 4.21366C23.5715 4.1386 21.9086 2.38629 17.0812 2.02734C16.4136 1.97774 15.7538 2.0045 15.1038 2.03778C14.9115 2.04205 14.7202 2.06567 14.5327 2.10827C14.0341 2.23683 13.901 2.55271 13.8664 2.72957C13.8083 3.02326 13.9101 3.25037 13.9773 3.40178C13.9871 3.42332 13.9995 3.45008 13.978 3.52056C13.8664 3.69416 13.6895 3.85079 13.5101 3.99894C13.4578 4.04267 12.2479 5.08688 12.1813 6.45023C12.0019 7.48726 12.0149 9.10252 12.227 10.2192C12.2401 10.2812 12.2577 10.3725 12.2283 10.4345C11.9999 10.6388 11.7415 10.8705 11.7421 11.3991C11.7447 11.4526 11.8185 12.7148 12.6101 13.825C12.7928 14.0821 13.031 14.3445 13.2823 14.6218L13.2836 14.6225C14.0831 15.5035 15.0783 16.6 15.2467 18.4547C15.3126 19.1857 15.278 19.4578 15.2643 19.5303C15.2454 19.5652 15.2307 19.6022 15.2206 19.6406C15.2199 19.6445 15.0705 20.0315 13.3606 20.4694C12.3738 20.722 11.4027 20.8512 11.3734 20.8545C10.1112 21.0679 9.04418 21.4457 8.20165 21.9776C7.50661 22.4169 6.96167 22.9612 6.58315 23.5942C5.97752 24.6058 5.99384 25.5273 6.00232 25.6957V26.2981H6.00298Z" stroke="white" stroke-width="4" stroke-linejoin="round" shape-rendering="crispEdges"/>
</g>
<defs>
<filter id="filter0_d_163_568" x="0" y="6.10352e-05" width="36.7999" height="36.7999" filterUnits="userSpaceOnUse" color-interpolation-filters="sRGB">
<feFlood flood-opacity="0" result="BackgroundImageFix"/>
<feColorMatrix in="SourceAlpha" type="matrix" values="0 0 0 0 0 0 0 0 0 0 0 0 0 0 0 0 0 0 127 0" result="hardAlpha"/>
<feOffset dy="4"/>
<feGaussianBlur stdDeviation="2"/>
<feComposite in2="hardAlpha" operator="out"/>
<feColorMatrix type="matrix" values="0 0 0 0 0 0 0 0 0 0 0 0 0 0 0 0 0 0 0.25 0"/>
<feBlend mode="normal" in2="BackgroundImageFix" result="effect1_dropShadow_163_568"/>
<feBlend mode="normal" in="SourceGraphic" in2="effect1_dropShadow_163_568" result="shape"/>
</filter>
</defs>
</svg>
